<?xml version="1.0" encoding="utf-8"?>
<!-- Generator: Adobe Illustrator 16.0.4, SVG Export Plug-In . SVG Version: 6.00 Build 0)  -->
<!DOCTYPE svg PUBLIC "-//W3C//DTD SVG 1.1//EN" "http://www.w3.org/Graphics/SVG/1.1/DTD/svg11.dtd">
<svg version="1.1" id="Livello_1" xmlns="http://www.w3.org/2000/svg" xmlns:xlink="http://www.w3.org/1999/xlink" x="0px" y="0px"
	 width="141.732px" height="77.57px" viewBox="0 0 141.732 77.57" enable-background="new 0 0 141.732 77.57" xml:space="preserve">
<g id="Livello_80" opacity="0.2">
	<path d="M89.668,38.786c0-10.771-8.729-19.512-19.51-19.512S50.646,28.01,50.646,38.786c0,10.774,8.729,19.511,19.512,19.511
		C80.934,58.297,89.668,49.561,89.668,38.786 M128.352,38.727c-13.315,17.599-34.429,28.972-58.193,28.972
		c-23.77,0-44.879-11.373-58.194-28.972C25.279,21.129,46.389,9.756,70.158,9.756S115.036,21.129,128.352,38.727 M140.314,38.76
		C125.666,15.478,99.725,0,70.158,0S14.648,15.478,0,38.76C14.648,62.072,40.591,77.57,70.158,77.57S125.666,62.072,140.314,38.76"
		/>
</g>
<g id="Livello_1_1_" opacity="0.2">
</g>
</svg>
