<?xml version="1.0" encoding="utf-8"?>
<!-- Generator: Adobe Illustrator 16.0.4, SVG Export Plug-In . SVG Version: 6.00 Build 0)  -->
<!DOCTYPE svg PUBLIC "-//W3C//DTD SVG 1.1//EN" "http://www.w3.org/Graphics/SVG/1.1/DTD/svg11.dtd">
<svg version="1.1" id="Layer_1" xmlns="http://www.w3.org/2000/svg" xmlns:xlink="http://www.w3.org/1999/xlink" x="0px" y="0px"
	 width="100px" height="129px" viewBox="0 0 100 129" enable-background="new 0 0 100 129" xml:space="preserve">
<path fill="#323542" d="M90.836,51.667c5.992,12.991,1.918,36.425-16.305,48.86c-17.707,12.078-41.5,9.498-56.366-6.234
	C3.878,79.167,2.662,54.94,15.362,38.403c12.651-16.475,36.083-22.077,53.085-12.417c-11.072-3.201-21.722-2.594-31.481,3.794
	c-9.878,6.465-15.365,15.703-16.06,27.553c-1.163,19.858,14.272,36.752,33.959,37.298C77.383,95.255,90.988,79.009,90.836,51.667z"
	/>
<path fill="#4FA794" d="M48.584,89.26c20.77-3.84,29.791-13.357,27.777-29.286c-1.586-12.562-13.154-22.032-26.183-21.433
	c-14.98,0.691-23.183,11.552-23.5,31.119c-5.307-10.479-1.275-25.829,9.003-34.249c11.224-9.2,27.145-9.463,38.553-0.635
	c11.588,8.963,15.32,24.646,9.029,37.926C77.102,85.716,63.055,92.42,48.584,89.26z"/>
</svg>
