<?xml version="1.0" encoding="utf-8"?>
<!-- Generator: Adobe Illustrator 16.0.4, SVG Export Plug-In . SVG Version: 6.00 Build 0)  -->
<!DOCTYPE svg PUBLIC "-//W3C//DTD SVG 1.1//EN" "http://www.w3.org/Graphics/SVG/1.1/DTD/svg11.dtd">
<svg version="1.1" id="Layer_1" xmlns="http://www.w3.org/2000/svg" xmlns:xlink="http://www.w3.org/1999/xlink" x="0px" y="0px"
	 width="180px" height="180px" viewBox="0 0 180 180" enable-background="new 0 0 180 180" xml:space="preserve">
<line fill="none" stroke="#999999" stroke-miterlimit="10" x1="2.309" y1="1.98" x2="2.309" y2="41.132"/>
<line fill="none" stroke="#999999" stroke-miterlimit="10" x1="40.968" y1="1.98" x2="1.815" y2="1.98"/>
<line fill="none" stroke="#999999" stroke-miterlimit="10" x1="177.968" y1="1.827" x2="138.814" y2="1.827"/>
<line fill="none" stroke="#999999" stroke-miterlimit="10" x1="177.968" y1="40.486" x2="177.968" y2="1.333"/>
<line fill="none" stroke="#999999" stroke-miterlimit="10" x1="177.584" y1="177.525" x2="177.584" y2="138.372"/>
<line fill="none" stroke="#999999" stroke-miterlimit="10" x1="138.924" y1="177.525" x2="178.076" y2="177.525"/>
<line fill="none" stroke="#999999" stroke-miterlimit="10" x1="1.924" y1="177.678" x2="41.076" y2="177.678"/>
<line fill="none" stroke="#999999" stroke-miterlimit="10" x1="1.924" y1="139.02" x2="1.924" y2="178.171"/>
<rect x="13.833" y="86" fill="none" width="153.916" height="14"/>
<g enable-background="new    ">
	<path fill="#7B7B7B" d="M17.564,92.461h-1.131v3.289h-1.235v-8.957h2.34c2.171,0,3.497,0.884,3.497,2.769
		C21.035,91.655,19.592,92.461,17.564,92.461z M17.668,87.755h-1.235v3.731h1.235c1.183,0,2.054-0.378,2.054-1.911
		C19.722,88.235,18.864,87.755,17.668,87.755z"/>
	<path fill="#7B7B7B" d="M24.974,95.672c-0.299,0.144-0.624,0.234-0.975,0.234c-0.819,0-1.404-0.469-1.404-1.639v-8.125L23.791,86
		v8.372c0,0.39,0.13,0.546,0.429,0.546c0.169,0,0.312-0.026,0.442-0.078L24.974,95.672z"/>
	<path fill="#7B7B7B" d="M27.236,92.734c0.104,1.521,0.806,2.196,1.846,2.196c0.624,0,1.131-0.155,1.716-0.637l0.546,0.793
		c-0.637,0.507-1.404,0.819-2.288,0.819c-2.041,0-3.094-1.443-3.094-3.575c0-2.067,1.079-3.588,2.899-3.588
		c1.794,0,2.769,1.286,2.769,3.38c0,0.233-0.013,0.455-0.026,0.611H27.236z M27.236,91.85h3.211
		c-0.026-1.417-0.52-2.158-1.586-2.158C27.925,89.691,27.327,90.381,27.236,91.85z"/>
	<path fill="#7B7B7B" d="M38.208,94.203c0,0.546,0.156,0.741,0.507,0.871l-0.286,0.832c-0.611-0.078-1.053-0.352-1.261-0.962
		c-0.481,0.649-1.209,0.962-2.041,0.962c-1.378,0-2.223-0.846-2.223-2.119c0-1.417,1.144-2.21,3.224-2.21h0.884v-0.533
		c0-0.962-0.481-1.326-1.482-1.326c-0.455,0-1.092,0.104-1.794,0.351l-0.312-0.884c0.845-0.312,1.612-0.441,2.288-0.441
		c1.742,0,2.496,0.845,2.496,2.235V94.203z M37.012,94.06V92.37h-0.819c-1.469,0-1.976,0.533-1.976,1.365
		c0,0.845,0.377,1.273,1.235,1.273C36.102,95.009,36.622,94.658,37.012,94.06z"/>
	<path fill="#7B7B7B" d="M43.759,93.904c0-0.677-0.325-0.937-1.677-1.274c-1.235-0.312-2.028-0.845-2.028-1.963
		c0-1.157,1.118-1.924,2.561-1.924c0.936,0,1.651,0.285,2.21,0.688l-0.533,0.807c-0.494-0.339-1.001-0.547-1.729-0.547
		c-0.741,0-1.274,0.352-1.274,0.897c0,0.585,0.429,0.806,1.586,1.118c1.209,0.338,2.171,0.78,2.171,2.105
		c0,1.47-1.339,2.094-2.704,2.094c-1.157,0-1.989-0.377-2.587-0.897l0.663-0.754c0.533,0.442,1.17,0.689,1.898,0.689
		C43.187,94.944,43.759,94.541,43.759,93.904z"/>
	<path fill="#7B7B7B" d="M47.594,92.734c0.104,1.521,0.806,2.196,1.846,2.196c0.624,0,1.131-0.155,1.716-0.637l0.546,0.793
		c-0.637,0.507-1.404,0.819-2.288,0.819c-2.041,0-3.094-1.443-3.094-3.575c0-2.067,1.079-3.588,2.899-3.588
		c1.794,0,2.769,1.286,2.769,3.38c0,0.233-0.013,0.455-0.026,0.611H47.594z M47.594,91.85h3.211
		c-0.026-1.417-0.52-2.158-1.586-2.158C48.283,89.691,47.685,90.381,47.594,91.85z"/>
	<path fill="#7B7B7B" d="M54.393,94.099c0.52,0,0.91,0.403,0.91,0.897c0,0.286-0.065,0.546-0.234,0.923l-0.871,1.989h-0.858
		l0.52-2.158c-0.221-0.169-0.364-0.442-0.364-0.754C53.495,94.502,53.885,94.099,54.393,94.099z"/>
	<path fill="#7B7B7B" d="M64.845,89.536V86l1.196,0.143v9.607h-1.053l-0.104-0.884c-0.494,0.702-1.196,1.04-1.963,1.04
		c-1.768,0-2.613-1.417-2.613-3.575c0-2.067,1.014-3.588,2.704-3.588C63.778,88.743,64.39,89.016,64.845,89.536z M61.595,92.331
		c0,1.807,0.572,2.626,1.599,2.626c0.728,0,1.287-0.494,1.651-1.053v-3.367c-0.364-0.533-0.91-0.846-1.521-0.846
		C62.231,89.691,61.595,90.55,61.595,92.331z"/>
	<path fill="#7B7B7B" d="M68.588,95.75v-6.852h1.04l0.143,1.313c0.39-0.962,0.988-1.469,1.794-1.469
		c0.221,0,0.468,0.025,0.676,0.077l-0.221,1.171c-0.208-0.053-0.351-0.078-0.598-0.078c-0.858,0-1.404,0.871-1.638,1.819v4.018
		H68.588z"/>
	<path fill="#7B7B7B" d="M78.065,94.203c0,0.546,0.156,0.741,0.507,0.871l-0.286,0.832c-0.611-0.078-1.053-0.352-1.261-0.962
		c-0.481,0.649-1.209,0.962-2.041,0.962c-1.378,0-2.223-0.846-2.223-2.119c0-1.417,1.144-2.21,3.224-2.21h0.884v-0.533
		c0-0.962-0.481-1.326-1.482-1.326c-0.455,0-1.092,0.104-1.794,0.351l-0.312-0.884c0.845-0.312,1.612-0.441,2.288-0.441
		c1.742,0,2.496,0.845,2.496,2.235V94.203z M76.87,94.06V92.37H76.05c-1.469,0-1.976,0.533-1.976,1.365
		c0,0.845,0.377,1.273,1.235,1.273C75.959,95.009,76.479,94.658,76.87,94.06z"/>
	<path fill="#7B7B7B" d="M81.498,93.982c0,0.312,0.195,0.559,0.741,0.559h0.949c1.651,0,2.6,0.676,2.6,1.924
		c0,1.431-1.417,2.055-3.172,2.055c-2.028,0-2.938-0.689-2.938-2.028v-0.052h1.079c0,0.909,0.741,1.144,1.859,1.144
		c1.521,0,1.963-0.468,1.963-1.053c0-0.572-0.273-0.988-1.456-0.988h-0.91c-1.105,0-1.82-0.521-1.82-1.339
		c0-0.416,0.247-0.846,0.676-1.157c-0.689-0.403-1.079-1.066-1.079-1.898c0-1.352,1.001-2.404,2.678-2.404
		c1.495,0,2.34-0.273,3.094-0.611l0.351,1.079c-0.572,0.182-1.222,0.208-1.924,0.208v0.052c0.676,0.312,1.092,0.91,1.092,1.69
		c0,1.326-0.962,2.313-2.587,2.313c-0.312,0-0.611-0.039-0.91-0.117C81.627,93.501,81.498,93.735,81.498,93.982z M82.667,92.682
		c0.936,0,1.43-0.61,1.43-1.547c0-0.975-0.468-1.534-1.43-1.534c-0.949,0-1.456,0.663-1.456,1.547
		C81.211,92.045,81.731,92.682,82.667,92.682z"/>
	<path fill="#7B7B7B" d="M93.51,95.789c-0.481,1.443-1.301,2.548-3.146,2.73l-0.169-0.937c1.403-0.234,1.846-0.793,2.171-1.833
		h-0.402L89.7,88.898h1.274l1.768,5.89h0.053l1.768-5.89h1.234L93.51,95.789z"/>
	<path fill="#7B7B7B" d="M99.749,88.743c1.95,0,3.042,1.403,3.042,3.575c0,2.118-1.117,3.588-3.055,3.588
		c-1.95,0-3.055-1.404-3.055-3.575C96.682,90.212,97.799,88.743,99.749,88.743z M99.749,89.705c-1.144,0-1.781,0.832-1.781,2.626
		c0,1.781,0.624,2.613,1.769,2.613c1.144,0,1.768-0.832,1.768-2.626C101.504,90.537,100.88,89.705,99.749,89.705z"/>
	<path fill="#7B7B7B" d="M105.937,88.898v4.837c0,0.884,0.273,1.234,1.015,1.234c0.702,0,1.312-0.48,1.677-1.053v-5.019h1.196v6.852
		h-1.027l-0.091-0.91c-0.533,0.689-1.287,1.066-2.08,1.066c-1.313,0-1.885-0.754-1.885-2.028v-4.979H105.937z"/>
	<path fill="#7B7B7B" d="M112.372,95.75v-6.852h1.04l0.143,1.313c0.39-0.962,0.988-1.469,1.794-1.469
		c0.221,0,0.468,0.025,0.676,0.077l-0.221,1.171c-0.208-0.053-0.351-0.078-0.598-0.078c-0.858,0-1.404,0.871-1.639,1.819v4.018
		H112.372z"/>
	<path fill="#7B7B7B" d="M125.943,95.191l0.013,0.052c1.118,0,1.886,0.364,2.522,0.806l-0.806,1.04
		c-1.015-0.91-1.95-1.209-3.575-1.209c-2.236,0-3.758-1.547-3.758-4.589c0-2.99,1.521-4.654,3.719-4.654s3.718,1.599,3.718,4.641
		C127.776,93.241,127.165,94.541,125.943,95.191z M124.059,87.65c-1.456,0-2.405,1.015-2.405,3.641s0.988,3.601,2.405,3.601
		c1.456,0,2.405-0.987,2.405-3.614C126.464,88.651,125.515,87.65,124.059,87.65z"/>
	<path fill="#7B7B7B" d="M133.562,91.798l2.626,3.952h-1.469l-2.393-3.796h-1.145v3.796h-1.234v-8.957h2.353
		c2.236,0,3.406,0.857,3.406,2.535C135.707,90.667,134.771,91.486,133.562,91.798z M132.418,87.755h-1.235v3.25h1.248
		c1.248,0,1.964-0.468,1.964-1.677C134.395,88.21,133.757,87.755,132.418,87.755z"/>
	<path fill="#7B7B7B" d="M141.193,95.75v-9.595l1.195-0.13v3.744c0.546-0.649,1.301-1.026,2.106-1.026
		c1.326,0,1.859,0.754,1.859,2.027v4.979h-1.196v-4.901c0-0.819-0.286-1.17-1.066-1.17c-0.741,0-1.339,0.572-1.703,1.105v4.966
		H141.193z"/>
	<path fill="#7B7B7B" d="M149.59,92.734c0.104,1.521,0.807,2.196,1.847,2.196c0.624,0,1.131-0.155,1.716-0.637l0.546,0.793
		c-0.637,0.507-1.404,0.819-2.288,0.819c-2.041,0-3.094-1.443-3.094-3.575c0-2.067,1.079-3.588,2.899-3.588
		c1.794,0,2.769,1.286,2.769,3.38c0,0.233-0.013,0.455-0.026,0.611H149.59z M149.59,91.85h3.212
		c-0.026-1.417-0.521-2.158-1.586-2.158C150.279,89.691,149.682,90.381,149.59,91.85z"/>
	<path fill="#7B7B7B" d="M155.947,95.75v-6.852h1.04l0.143,1.313c0.39-0.962,0.988-1.469,1.794-1.469
		c0.222,0,0.468,0.025,0.676,0.077l-0.221,1.171c-0.208-0.053-0.351-0.078-0.598-0.078c-0.858,0-1.404,0.871-1.639,1.819v4.018
		H155.947z"/>
	<path fill="#7B7B7B" d="M161.68,92.734c0.104,1.521,0.807,2.196,1.847,2.196c0.624,0,1.131-0.155,1.716-0.637l0.546,0.793
		c-0.637,0.507-1.404,0.819-2.288,0.819c-2.041,0-3.094-1.443-3.094-3.575c0-2.067,1.079-3.588,2.899-3.588
		c1.794,0,2.769,1.286,2.769,3.38c0,0.233-0.013,0.455-0.026,0.611H161.68z M161.68,91.85h3.212
		c-0.026-1.417-0.521-2.158-1.586-2.158C162.369,89.691,161.771,90.381,161.68,91.85z"/>
</g>
</svg>
