<?xml version="1.0" encoding="utf-8"?>
<!-- Generator: Adobe Illustrator 16.0.4, SVG Export Plug-In . SVG Version: 6.00 Build 0)  -->
<!DOCTYPE svg PUBLIC "-//W3C//DTD SVG 1.1//EN" "http://www.w3.org/Graphics/SVG/1.1/DTD/svg11.dtd">
<svg version="1.1" id="Livello_1" xmlns="http://www.w3.org/2000/svg" xmlns:xlink="http://www.w3.org/1999/xlink" x="0px" y="0px"
	 width="141.732px" height="141.732px" viewBox="0 0 141.732 141.732" enable-background="new 0 0 141.732 141.732"
	 xml:space="preserve">
<g id="Livello_113">
	<path fill="#FFFFFF" d="M94.23,32.851v22.938H48.745V32.851c0-12.559,10.185-22.743,22.744-22.743
		C84.048,10.107,94.23,20.29,94.23,32.851 M62.367,84.167c0-5.039,4.085-9.122,9.122-9.122c5.039,0,9.122,4.083,9.122,9.122
		c0,3.89-2.438,7.198-5.864,8.515v29.276H68.23V92.681C64.804,91.366,62.367,88.054,62.367,84.167 M120.946,136.716L120.946,136.716
		l0.001-76.429h-0.001c0-0.004,0.001-0.008,0.001-0.012c0-2.479-2.008-4.487-4.487-4.487c-0.004,0-0.008,0.001-0.012,0.001v-0.001
		h-12.107V32.851C104.341,14.707,89.632,0,71.489,0C53.345,0,38.637,14.707,38.637,32.851v22.938H26.529v0.001
		c-0.004,0-0.009-0.001-0.013-0.001c-2.479,0.001-4.485,2.009-4.485,4.487c0,0.004,0.001,0.008,0.001,0.012h-0.001v76.429h0.001
		c0,0.008-0.001,0.012-0.001,0.016c0,2.475,2.008,4.485,4.486,4.485c0.004,0,0.009-0.001,0.013-0.001v0.001h89.921v-0.001
		c0.004,0,0.008,0.001,0.012,0.001c2.478,0,4.488-2.008,4.488-4.485C120.947,136.724,120.946,136.719,120.946,136.716"/>
</g>
<g id="Livello_1_1_">
</g>
</svg>
