<?xml version="1.0" encoding="utf-8"?>
<!-- Generator: Adobe Illustrator 16.0.0, SVG Export Plug-In . SVG Version: 6.00 Build 0)  -->
<!DOCTYPE svg PUBLIC "-//W3C//DTD SVG 1.1//EN" "http://www.w3.org/Graphics/SVG/1.1/DTD/svg11.dtd">
<svg version="1.1" id="Layer_1" xmlns="http://www.w3.org/2000/svg" xmlns:xlink="http://www.w3.org/1999/xlink" x="0px" y="0px"
	 width="150px" height="75px" viewBox="0 0 150 75" enable-background="new 0 0 150 75" xml:space="preserve">
<path fill="#49364F" d="M23.598,59.836c-6.303,0-12.229-2.454-16.686-6.912C2.455,48.467,0,42.541,0,36.238
	c0-6.304,2.455-12.229,6.912-16.686c4.457-4.457,10.382-6.911,16.686-6.911s12.229,2.455,16.686,6.911
	c4.457,4.457,6.912,10.382,6.912,16.686c0,6.303-2.455,12.229-6.912,16.686C35.826,57.382,29.901,59.836,23.598,59.836z
	 M23.598,12.97c-6.215,0-12.059,2.421-16.453,6.815C2.75,24.18,0.329,30.023,0.329,36.238c0,6.215,2.42,12.059,6.815,16.453
	c4.395,4.395,10.238,6.814,16.453,6.814c6.215,0,12.059-2.42,16.453-6.814s6.815-10.238,6.815-16.453
	c0-6.215-2.42-12.059-6.815-16.453C35.656,15.391,29.812,12.97,23.598,12.97z"/>
<path fill="#49364F" d="M23.607,52.201c-4.839,0-9.36-2.154-12.405-5.907c-2.686-3.312-3.922-7.469-3.48-11.71
	c0.442-4.24,2.508-8.054,5.819-10.741c2.835-2.3,6.403-3.567,10.046-3.567c4.838,0,9.36,2.153,12.404,5.905
	c2.687,3.312,3.922,7.471,3.48,11.712c-0.441,4.24-2.508,8.053-5.819,10.74C30.818,50.934,27.251,52.201,23.607,52.201z
	 M23.588,20.605c-3.568,0-7.062,1.241-9.839,3.494c-3.243,2.63-5.267,6.366-5.699,10.52c-0.433,4.153,0.778,8.226,3.408,11.467
	c2.982,3.676,7.41,5.785,12.15,5.785c3.567,0,7.062-1.241,9.839-3.492c3.242-2.632,5.267-6.367,5.699-10.521
	c0.433-4.151-0.778-8.225-3.409-11.468C32.755,22.714,28.327,20.605,23.588,20.605z"/>
<path fill="#FFC23B" d="M19.525,35.811c0,6,2.281,10.865,5.095,10.865h-2.018c-2.813,0-5.095-4.864-5.095-10.865
	c0-5.957,2.248-10.792,5.033-10.864v-0.002h2.033v0.002C21.781,25.001,19.525,29.844,19.525,35.811z"/>
<path fill="#FFED68" d="M19.525,35.811c0-5.967,2.255-10.81,5.047-10.864c0.016,0,0.032-0.002,0.047-0.002
	c2.814,0,5.095,4.864,5.095,10.866c0,5.99-2.273,10.847-5.08,10.865c-0.005,0-0.01,0-0.015,0
	C21.807,46.676,19.525,41.812,19.525,35.811z"/>
<circle fill="#49364F" cx="37.8" cy="43.14" r="1.918"/>
<circle fill="#49364F" cx="6.249" cy="20.507" r="3.234"/>
<g>
	<path fill="#49364F" d="M61.259,42.379c0.804,0,1.467-0.136,1.989-0.403c0.521-0.269,0.975-0.573,1.363-0.916l1.094,1.386
		c-0.477,0.462-1.083,0.863-1.82,1.207c-0.738,0.342-1.643,0.513-2.715,0.513c-0.924,0-1.78-0.171-2.569-0.513
		c-0.79-0.344-1.468-0.854-2.033-1.531c-0.566-0.678-1.009-1.511-1.329-2.503c-0.321-0.989-0.481-2.134-0.481-3.429
		c0-1.296,0.171-2.439,0.515-3.43c0.342-0.99,0.804-1.821,1.385-2.491s1.259-1.177,2.033-1.519c0.774-0.343,1.594-0.514,2.458-0.514
		c0.491,0,0.938,0.034,1.34,0.101c0.402,0.067,0.774,0.165,1.117,0.291c0.342,0.126,0.667,0.287,0.972,0.48
		c0.304,0.194,0.606,0.41,0.904,0.648l-1.162,1.362c-0.909-0.759-1.922-1.139-3.039-1.139c-0.566,0-1.11,0.108-1.631,0.324
		c-0.521,0.216-0.976,0.566-1.363,1.05c-0.387,0.484-0.696,1.121-0.927,1.91c-0.231,0.79-0.346,1.765-0.346,2.927
		c0,1.117,0.108,2.066,0.324,2.849s0.514,1.418,0.894,1.911c0.379,0.49,0.83,0.852,1.352,1.082
		C60.105,42.263,60.664,42.379,61.259,42.379z"/>
	<path fill="#49364F" d="M67.404,38.021c0-0.907,0.119-1.742,0.357-2.502c0.238-0.759,0.581-1.411,1.028-1.954
		c0.447-0.544,0.997-0.965,1.653-1.263c0.655-0.298,1.4-0.447,2.235-0.447c0.833,0,1.575,0.145,2.223,0.436
		c0.648,0.29,1.195,0.704,1.642,1.24c0.447,0.536,0.786,1.181,1.017,1.933c0.23,0.753,0.347,1.598,0.347,2.536
		c0,0.909-0.119,1.742-0.356,2.503c-0.239,0.759-0.582,1.411-1.029,1.954c-0.446,0.544-0.994,0.966-1.641,1.263
		c-0.648,0.297-1.389,0.446-2.224,0.446s-1.579-0.146-2.234-0.436c-0.655-0.29-1.206-0.703-1.654-1.24
		c-0.447-0.536-0.786-1.181-1.016-1.933C67.52,39.807,67.404,38.96,67.404,38.021z M75.693,37.999c0-1.533-0.258-2.666-0.771-3.396
		c-0.514-0.73-1.262-1.096-2.245-1.096c-0.984,0-1.739,0.365-2.268,1.096c-0.529,0.729-0.793,1.869-0.793,3.417
		c0,1.534,0.26,2.668,0.782,3.397s1.274,1.094,2.256,1.094c0.983,0,1.735-0.364,2.256-1.094
		C75.432,40.688,75.693,39.548,75.693,37.999z"/>
	<path fill="#49364F" d="M83.736,28.034c0,0.402-0.135,0.737-0.402,1.006c-0.269,0.268-0.618,0.402-1.051,0.402
		s-0.778-0.134-1.039-0.402c-0.261-0.269-0.391-0.604-0.391-1.006c0-0.387,0.13-0.715,0.391-0.983s0.606-0.402,1.039-0.402
		s0.782,0.134,1.051,0.402C83.602,27.319,83.736,27.647,83.736,28.034z M81.256,43.897V32.123h2.055v11.774H81.256z"/>
	<path fill="#49364F" d="M89.656,43.897H87.6V32.123h1.765l0.157,1.608c0.476-0.611,1.046-1.076,1.71-1.396
		c0.662-0.32,1.343-0.48,2.043-0.48c1.147,0,1.967,0.305,2.458,0.916s0.736,1.467,0.736,2.569v8.557h-2.055v-8.423
		c0-0.714-0.138-1.228-0.413-1.542c-0.275-0.313-0.748-0.469-1.419-0.469c-0.312,0-0.614,0.056-0.904,0.167
		c-0.291,0.112-0.56,0.257-0.805,0.436c-0.246,0.18-0.474,0.384-0.681,0.614c-0.209,0.231-0.388,0.458-0.536,0.682V43.897z"/>
	<path fill="#49364F" d="M105.117,42.422c0.431,0,0.849-0.07,1.25-0.212c0.402-0.141,0.843-0.391,1.319-0.748l0.982,1.408
		c-0.552,0.446-1.128,0.774-1.732,0.982c-0.602,0.209-1.217,0.312-1.843,0.312c-0.879,0-1.646-0.146-2.301-0.436
		c-0.656-0.29-1.204-0.699-1.642-1.229c-0.44-0.527-0.769-1.17-0.982-1.923c-0.217-0.75-0.325-1.589-0.325-2.512
		c0-0.895,0.111-1.717,0.335-2.469c0.224-0.752,0.555-1.408,0.994-1.967c0.439-0.558,0.987-0.994,1.643-1.307
		c0.654-0.312,1.423-0.469,2.302-0.469c0.625,0,1.235,0.097,1.832,0.291c0.595,0.194,1.168,0.521,1.72,0.983l-1.005,1.34
		c-0.478-0.358-0.913-0.599-1.308-0.726c-0.396-0.126-0.809-0.19-1.239-0.19c-0.954,0-1.702,0.369-2.246,1.106
		s-0.815,1.873-0.815,3.408c0,1.548,0.271,2.662,0.815,3.34S104.163,42.422,105.117,42.422z"/>
	<path fill="#49364F" d="M110.256,38.021c0-0.907,0.119-1.742,0.357-2.502c0.238-0.759,0.581-1.411,1.027-1.954
		c0.447-0.544,0.998-0.965,1.653-1.263s1.4-0.447,2.234-0.447s1.575,0.145,2.223,0.436c0.648,0.29,1.196,0.704,1.643,1.24
		s0.785,1.181,1.016,1.933c0.23,0.753,0.348,1.598,0.348,2.536c0,0.909-0.12,1.742-0.357,2.503
		c-0.239,0.759-0.582,1.411-1.029,1.954c-0.446,0.544-0.993,0.966-1.641,1.263c-0.648,0.297-1.39,0.446-2.224,0.446
		c-0.835,0-1.579-0.146-2.233-0.436c-0.656-0.29-1.207-0.703-1.654-1.24c-0.446-0.536-0.786-1.181-1.017-1.933
		C110.371,39.807,110.256,38.96,110.256,38.021z M118.545,37.999c0-1.533-0.258-2.666-0.771-3.396
		c-0.514-0.73-1.263-1.096-2.245-1.096c-0.983,0-1.739,0.365-2.268,1.096c-0.529,0.729-0.793,1.869-0.793,3.417
		c0,1.534,0.26,2.668,0.781,3.397s1.274,1.094,2.257,1.094s1.735-0.364,2.256-1.094C118.284,40.688,118.545,39.548,118.545,37.999z"
		/>
	<path fill="#49364F" d="M127.012,42.512c0.761,0,1.362-0.16,1.81-0.48c0.446-0.32,0.67-0.755,0.67-1.307
		c0-0.283-0.04-0.532-0.122-0.748c-0.082-0.217-0.23-0.405-0.447-0.57c-0.216-0.164-0.51-0.312-0.882-0.446
		c-0.373-0.135-0.851-0.276-1.431-0.425c-0.536-0.134-1.017-0.294-1.441-0.48c-0.424-0.186-0.789-0.413-1.094-0.682
		c-0.306-0.268-0.541-0.584-0.705-0.949c-0.164-0.364-0.245-0.785-0.245-1.262c0-0.492,0.112-0.942,0.336-1.352
		c0.222-0.41,0.532-0.76,0.927-1.05c0.394-0.291,0.86-0.514,1.396-0.67s1.117-0.234,1.742-0.234c0.805,0,1.52,0.111,2.145,0.335
		s1.177,0.507,1.654,0.849l-0.916,1.386c-0.433-0.298-0.879-0.529-1.341-0.693c-0.462-0.164-1.006-0.246-1.632-0.246
		c-0.641,0-1.165,0.138-1.574,0.414c-0.41,0.276-0.614,0.652-0.614,1.128c0,0.254,0.048,0.469,0.145,0.648s0.254,0.342,0.47,0.492
		s0.499,0.282,0.849,0.402c0.351,0.118,0.771,0.245,1.263,0.38c0.521,0.148,1.009,0.313,1.463,0.491
		c0.455,0.18,0.85,0.406,1.184,0.681c0.336,0.276,0.601,0.611,0.794,1.006c0.194,0.396,0.29,0.875,0.29,1.441
		c0,0.626-0.13,1.166-0.391,1.619c-0.261,0.455-0.611,0.827-1.05,1.117c-0.44,0.291-0.938,0.508-1.498,0.648
		c-0.558,0.142-1.127,0.212-1.708,0.212c-0.998,0-1.858-0.146-2.581-0.436s-1.344-0.659-1.865-1.105l1.14-1.296
		c0.461,0.387,0.964,0.682,1.508,0.882C125.801,42.411,126.386,42.512,127.012,42.512z"/>
	<path fill="#49364F" d="M134.81,43.897V32.123h1.765l0.157,1.608c0.476-0.611,1.012-1.076,1.607-1.396
		c0.597-0.32,1.221-0.48,1.877-0.48c0.806,0,1.441,0.16,1.911,0.48c0.469,0.321,0.8,0.786,0.994,1.396
		c0.477-0.565,1.023-1.02,1.642-1.362c0.617-0.343,1.262-0.514,1.934-0.514c1.131,0,1.936,0.305,2.412,0.916
		s0.715,1.467,0.715,2.569v8.557h-2.056v-8.289c0-0.759-0.119-1.307-0.356-1.642c-0.239-0.335-0.664-0.503-1.274-0.503
		c-0.283,0-0.559,0.052-0.827,0.156c-0.268,0.104-0.521,0.246-0.759,0.425c-0.238,0.179-0.462,0.383-0.67,0.614
		c-0.209,0.231-0.388,0.466-0.536,0.704v8.535h-2.056v-8.445c0-0.715-0.127-1.225-0.381-1.53c-0.253-0.305-0.67-0.458-1.25-0.458
		c-0.284,0-0.559,0.052-0.827,0.156s-0.521,0.246-0.76,0.425c-0.238,0.179-0.462,0.383-0.671,0.614
		c-0.208,0.231-0.387,0.466-0.535,0.704v8.535H134.81z"/>
</g>
</svg>
