<?xml version="1.0" encoding="utf-8"?>
<!-- Generator: Adobe Illustrator 16.0.4, SVG Export Plug-In . SVG Version: 6.00 Build 0)  -->
<!DOCTYPE svg PUBLIC "-//W3C//DTD SVG 1.1//EN" "http://www.w3.org/Graphics/SVG/1.1/DTD/svg11.dtd">
<svg version="1.1" id="Layer_1" xmlns="http://www.w3.org/2000/svg" xmlns:xlink="http://www.w3.org/1999/xlink" x="0px" y="0px"
	 width="75px" height="75px" viewBox="0 0 75 75" enable-background="new 0 0 75 75" xml:space="preserve">
<path fill="#333366" d="M48.518,30.839c3.453,7.481,1.104,20.974-9.391,28.138c-10.197,6.957-23.896,5.472-32.459-3.588
	c-8.228-8.713-8.929-22.661-1.614-32.184c7.287-9.486,20.78-12.712,30.571-7.149c-6.375-1.846-12.509-1.494-18.13,2.185
	c-5.689,3.723-8.848,9.044-9.248,15.867C7.577,45.543,16.466,55.27,27.8,55.586C40.77,55.939,48.605,46.586,48.518,30.839z"/>
<path fill="#64CCAB" d="M24.185,52.486c11.96-2.211,17.156-7.689,15.997-16.864c-0.912-7.235-7.575-12.689-15.079-12.342
	c-8.626,0.396-13.349,6.65-13.531,17.917c-3.057-6.031-0.734-14.871,5.185-19.72c6.463-5.298,15.633-5.45,22.201-0.367
	c6.673,5.162,8.821,14.192,5.201,21.842C40.607,50.445,32.519,54.307,24.185,52.486z"/>
</svg>
