<?xml version="1.0" encoding="utf-8"?>
<!-- Generator: Adobe Illustrator 16.0.0, SVG Export Plug-In . SVG Version: 6.00 Build 0)  -->
<!DOCTYPE svg PUBLIC "-//W3C//DTD SVG 1.1//EN" "http://www.w3.org/Graphics/SVG/1.1/DTD/svg11.dtd">
<svg version="1.1" id="Слой_1" xmlns="http://www.w3.org/2000/svg" xmlns:xlink="http://www.w3.org/1999/xlink" x="0px" y="0px"
	 width="500px" height="500px" viewBox="0 0 500 500" enable-background="new 0 0 500 500" xml:space="preserve">
<g id="Livello_106">
	<path fill="#FFFFFF" d="M323.616,250.019l141.682,124.81l-12.9,13.256L309.636,262.33l-59.566,52.473l-58.868-51.858
		L49.169,388.071l-13.54-13.915l140.897-124.137L34.896,125.233l12.9-13.257l201.584,177.597l45.586-40.161l-0.118-0.121h0.253
		l155.892-137.344l13.561,13.929L323.616,250.019z M499.536,388.1V111.955c0-10.923-8.593-19.779-19.194-19.779
		c-0.073,0-0.146,0.011-0.219,0.014c-0.077-0.003-0.149-0.014-0.226-0.014c-1.185,0-2.324,0.128-3.468,0.364v-0.293H40.151v-0.036
		H20.256c-0.201-0.011-0.396-0.036-0.598-0.036c-0.073,0-0.146,0.011-0.222,0.014c-0.077-0.003-0.146-0.014-0.223-0.014
		c-10.357,0-18.75,8.649-18.75,19.314c0,0.079,0.01,0.154,0.01,0.232c0,0.075-0.01,0.157-0.01,0.232V388.1
		c0,10.895,8.593,19.726,19.194,19.726h460.68C490.943,407.825,499.536,398.994,499.536,388.1"/>
</g>
</svg>
