<?xml version="1.0" encoding="iso-8859-1"?>
<!-- Generator: Adobe Illustrator 17.1.0, SVG Export Plug-In . SVG Version: 6.00 Build 0)  -->
<!DOCTYPE svg PUBLIC "-//W3C//DTD SVG 1.1//EN" "http://www.w3.org/Graphics/SVG/1.1/DTD/svg11.dtd">
<svg version="1.1" id="Capa_1" xmlns="http://www.w3.org/2000/svg" xmlns:xlink="http://www.w3.org/1999/xlink" x="0px" y="0px"
	 viewBox="0 0 64 64" style="enable-background:new 0 0 64 64;" xml:space="preserve">
<g>
	<path d="M37.132,27.166c0.586-0.436,0.923-1.072,0.924-1.746c0-0.672-0.335-1.309-0.918-1.746l-8.73-6.555
		c-0.406-0.305-0.829-0.461-1.252-0.461c-0.823,0-1.657,0.658-1.657,1.916v1.33c0,0.201-0.163,0.363-0.363,0.363H13.985
		c-1.404,0-2.547,1.143-2.547,2.547v5.078c0,1.404,1.143,2.547,2.547,2.547h11.149c0.097,0,0.183,0.035,0.25,0.103
		c0.065,0.066,0.101,0.152,0.1,0.25l-0.012,1.461c-0.009,0.762,0.28,1.215,0.524,1.463c0.298,0.301,0.696,0.465,1.122,0.465
		c0.423,0,0.843-0.154,1.249-0.459L37.132,27.166z M25.135,28.256H13.985c-0.201,0-0.364-0.164-0.364-0.363v-5.078
		c0-0.199,0.163-0.363,0.364-0.363h11.149c1.403,0,2.546-1.143,2.546-2.547c0,0,0-0.135,0-0.301s0.358-0.032,0.8,0.3l6.546,4.915
		c0.442,0.332,0.441,0.869-0.001,1.199l-6.563,4.909c-0.442,0.331-0.799,0.44-0.798,0.244l0.003-0.355
		c0.007-0.684-0.253-1.324-0.731-1.807C26.457,28.521,25.816,28.256,25.135,28.256z"/>
	<path d="M41.667,30.725c-0.298-0.299-0.696-0.463-1.122-0.463c-0.423,0-0.843,0.154-1.25,0.459l-8.763,6.557
		c-0.586,0.434-0.923,1.07-0.924,1.744c0,0.674,0.335,1.311,0.918,1.748l8.73,6.553c0.406,0.307,0.829,0.461,1.252,0.461
		c0.823,0,1.657-0.658,1.657-1.916v-1.33c0-0.199,0.163-0.363,0.363-0.363h11.15c1.403,0,2.546-1.143,2.546-2.547v-5.076
		c0-1.404-1.143-2.547-2.546-2.547h-11.15c-0.096,0-0.183-0.035-0.25-0.104c-0.065-0.066-0.101-0.154-0.1-0.252l0.012-1.459
		C42.2,31.428,41.911,30.973,41.667,30.725z M53.68,36.188c0.2,0,0.363,0.162,0.363,0.363v5.076c0,0.201-0.163,0.365-0.363,0.365
		h-11.15c-1.403,0-2.546,1.143-2.546,2.545c0,0,0,0.135,0,0.301c0,0.166-0.358,0.032-0.8-0.3l-6.546-4.915
		c-0.442-0.332-0.441-0.869,0.001-1.199l6.563-4.909c0.442-0.331,0.799-0.439,0.798-0.243l-0.003,0.356
		c-0.007,0.682,0.253,1.322,0.73,1.807c0.48,0.484,1.12,0.752,1.802,0.752H53.68z"/>
	<path d="M26.644,41.311H12.191c-0.552,0-1,0.336-1,0.75s0.448,0.75,1,0.75h14.452c0.552,0,1-0.336,1-0.75
		S27.196,41.311,26.644,41.311z"/>
	<path d="M26.644,36.562H12.191c-0.552,0-1,0.336-1,0.75s0.448,0.75,1,0.75h14.452c0.552,0,1-0.336,1-0.75
		S27.196,36.562,26.644,36.562z"/>
	<path d="M55.226,25.916H40.773c-0.552,0-1,0.336-1,0.75s0.448,0.75,1,0.75h14.452c0.552,0,1-0.336,1-0.75
		S55.778,25.916,55.226,25.916z"/>
	<path d="M55.226,21.166H40.773c-0.552,0-1,0.336-1,0.75s0.448,0.75,1,0.75h14.452c0.552,0,1-0.336,1-0.75
		S55.778,21.166,55.226,21.166z"/>
</g>
</svg>
