<?xml version="1.0" encoding="utf-8"?>
<!-- Generator: Adobe Illustrator 16.0.4, SVG Export Plug-In . SVG Version: 6.00 Build 0)  -->
<!DOCTYPE svg PUBLIC "-//W3C//DTD SVG 1.1//EN" "http://www.w3.org/Graphics/SVG/1.1/DTD/svg11.dtd">
<svg version="1.1" id="Capa_1" xmlns="http://www.w3.org/2000/svg" xmlns:xlink="http://www.w3.org/1999/xlink" x="0px" y="0px"
	 width="44px" height="44px" viewBox="0 0 44 44" enable-background="new 0 0 44 44" xml:space="preserve">
<g>
	<path fill="#40C781" d="M25.109,16.686c0.574-0.451,0.904-1.109,0.904-1.805c0-0.694-0.328-1.354-0.898-1.806l-8.544-6.777
		c-0.398-0.315-0.812-0.476-1.225-0.476c-0.806,0-1.623,0.68-1.623,1.98v1.375c0,0.208-0.159,0.375-1.089,0.375H1.721
		c-0.64,0-1.758,1.182-1.758,2.633v5.249c0,1.451,1.119,2.635,2.493,2.635h10.911c0.095,0,0.179,0.036,0.245,0.105
		c0.063,0.068,0.1,0.157,0.098,0.26l-0.011,1.511c-0.009,0.787,0.274,1.256,0.512,1.511c0.292,0.312,0.682,0.481,1.098,0.481
		c0.414,0,0.826-0.16,1.223-0.474L25.109,16.686z M13.368,17.812H2.456c-0.197,0-0.357-0.17-0.357-0.375v-5.25
		c0-0.206,0.16-0.375,0.357-0.375h10.911c1.374,0,2.492-1.182,2.492-2.633c0,0,0-0.141,0-0.312s0.351-0.033,0.783,0.31l6.406,5.082
		c0.433,0.342,0.433,0.898,0,1.24l-6.424,5.074c-0.433,0.343-0.782,0.455-0.78,0.253l0.002-0.367
		c0.008-0.707-0.247-1.369-0.715-1.867C14.662,18.088,14.035,17.812,13.368,17.812z"/>
	<path fill="#40C781" d="M29.789,20.365c-0.291-0.311-0.682-0.479-1.098-0.479c-0.414,0-0.826,0.158-1.224,0.474l-8.577,6.778
		c-0.573,0.449-0.903,1.105-0.904,1.804c0,0.696,0.328,1.354,0.898,1.807l8.545,6.774C27.827,37.84,28.241,38,28.656,38
		c0.805,0,1.619-0.68,1.619-1.979v-1.375c0-0.206,0.16-0.375,0.356-0.375h10.912c1.373,0,2.49-1.183,2.49-2.634v-5.248
		c0-1.451-1.117-2.633-2.49-2.633H30.633c-0.094,0-0.18-0.037-0.246-0.107c-0.062-0.067-0.098-0.159-0.096-0.26l0.01-1.51
		C30.311,21.092,30.027,20.621,29.789,20.365z M41.547,26.012c0.195,0,0.355,0.168,0.355,0.375v5.248
		c0,0.209-0.16,0.377-0.355,0.377H30.635c-1.375,0-2.492,1.183-2.492,2.631c0,0,0,0.141,0,0.312s-0.35,0.033-0.783-0.311
		l-6.406-5.081c-0.433-0.345-0.432-0.898,0.001-1.239l6.423-5.076c0.434-0.341,0.781-0.451,0.781-0.25l-0.004,0.367
		c-0.006,0.706,0.248,1.367,0.715,1.868c0.471,0.501,1.098,0.778,1.764,0.778H41.547L41.547,26.012z"/>
	<path fill="#40C781" d="M15.086,31.309H0.941c-0.541,0-0.979,0.348-0.979,0.774s0.438,0.775,0.979,0.775h14.144
		c0.54,0,0.978-0.349,0.978-0.775S15.626,31.309,15.086,31.309z"/>
	<path fill="#40C781" d="M15.086,26.399H0.941c-0.541,0-0.979,0.347-0.979,0.774s0.438,0.775,0.979,0.775h14.144
		c0.54,0,0.978-0.348,0.978-0.775S15.626,26.399,15.086,26.399z"/>
	<path fill="#40C781" d="M43.061,15.393H28.914c-0.539,0-0.979,0.349-0.979,0.775c0,0.428,0.438,0.775,0.979,0.775h14.145
		c0.541,0,0.979-0.348,0.979-0.775C44.038,15.741,43.6,15.393,43.061,15.393z"/>
	<path fill="#40C781" d="M43.061,10.482H28.914c-0.539,0-0.979,0.347-0.979,0.775c0,0.429,0.438,0.775,0.979,0.775h14.145
		c0.541,0,0.979-0.347,0.979-0.775C44.037,10.829,43.6,10.482,43.061,10.482z"/>
</g>
</svg>
