<?xml version="1.0" encoding="utf-8"?>
<!-- Generator: Adobe Illustrator 16.0.4, SVG Export Plug-In . SVG Version: 6.00 Build 0)  -->
<!DOCTYPE svg PUBLIC "-//W3C//DTD SVG 1.1//EN" "http://www.w3.org/Graphics/SVG/1.1/DTD/svg11.dtd">
<svg version="1.1" id="Layer_6" xmlns="http://www.w3.org/2000/svg" xmlns:xlink="http://www.w3.org/1999/xlink" x="0px" y="0px"
	 width="492.5px" height="490.463px" viewBox="0 21.537 492.5 490.463" enable-background="new 0 21.537 492.5 490.463"
	 xml:space="preserve">
<path fill="#FFFFFF" d="M468.407,298.962c1.793-11.484,2.729-23.257,2.729-35.247c0-125.323-101.594-226.915-226.915-226.915
	c-11.449,0-22.695,0.856-33.689,2.493c-20.134-11.292-43.34-17.756-68.067-17.756C65.472,21.537,3.059,83.95,3.059,160.942
	c0,24.242,6.197,47.034,17.081,66.894c-1.857,11.687-2.835,23.668-2.835,35.88c0,125.324,101.592,226.915,226.916,226.915
	c9.774,0,19.403-0.62,28.852-1.819C295.133,503.454,321.587,512,350.047,512c76.992,0,139.405-62.413,139.405-139.405
	C489.452,345.556,481.731,320.333,468.407,298.962z M318.576,369.138c-17.893,14.938-43.355,22.4-76.393,22.4
	c-32.806,0-58.959-7.118-78.456-21.365c-16.745-11.944-25.118-25.729-25.118-41.355c0-6.894,2.233-12.521,6.7-16.887
	c4.467-4.363,10.137-6.549,17.015-6.549c8.016,0,15.229,3.91,21.648,11.718c10.31,12.641,16.611,19.764,18.904,21.366
	c9.851,7.815,22.906,11.718,39.176,11.718c13.974,0,25.199-3.445,33.681-10.34c7.791-6.203,11.685-13.667,11.685-22.398
	c0-13.097-8.062-21.712-24.17-25.849l-63.872-16.197c-40.514-10.338-60.766-32.964-60.766-67.892
	c0-25.502,10.471-45.027,31.418-58.586c17.954-11.485,40.509-17.231,67.672-17.231c23.479,0,45.11,5.514,64.909,16.542
	c20.941,11.717,31.418,25.502,31.418,41.354c0,6.893-2.533,12.354-7.596,16.371c-5.066,4.021-11.167,6.031-18.297,6.031
	c-6.906,0-13.354-3.216-19.336-9.65c-9.21-9.875-15.191-15.734-17.952-17.576c-9.442-6.428-21.754-9.649-36.945-9.649
	c-12.893,0-22.906,2.703-30.038,8.099c-7.137,5.4-10.703,12.465-10.703,21.195c0,12.18,12.889,21.14,38.669,26.88l47.3,10.684
	c43.271,9.882,64.908,33.661,64.908,71.335C344.039,336.743,335.55,355.353,318.576,369.138z"/>
</svg>
