<?xml version="1.0" encoding="utf-8"?>
<!-- Generator: Adobe Illustrator 16.0.4, SVG Export Plug-In . SVG Version: 6.00 Build 0)  -->
<!DOCTYPE svg PUBLIC "-//W3C//DTD SVG 1.1//EN" "http://www.w3.org/Graphics/SVG/1.1/DTD/svg11.dtd">
<svg version="1.1" id="Layer_1" xmlns="http://www.w3.org/2000/svg" xmlns:xlink="http://www.w3.org/1999/xlink" x="0px" y="0px"
	 width="26px" height="26px" viewBox="0 0 26 26" enable-background="new 0 0 26 26" xml:space="preserve">
<g>
	<path fill="#40C781" d="M0.556,15.115c-0.208,0.24-0.34,0.551-0.34,0.891L0.556,15.115z"/>
	<path fill="#40C781" d="M21.76,16.006c0-0.378-0.156-0.723-0.404-0.97L21.76,16.006z"/>
	<path fill="#40C781" d="M17.27,12.808h-0.006c-3.427,0-5.912-2.069-5.912-4.922c0-0.785,0.187-1.527,0.508-2.191H4.99
		c-0.752,0-1.364,0.611-1.364,1.365l-3.069,8.058c0.25-0.287,0.613-0.472,1.023-0.472h18.816c0.373,0,0.713,0.149,0.957,0.394
		l-0.944-2.256L17.27,12.808z"/>
	<path fill="#40C781" d="M20.398,15.973H1.58c-0.753,0-1.364,0.612-1.364,1.364v3.981c0,0.754,0.61,1.363,1.364,1.363h18.818
		c0.752,0,1.36-0.609,1.36-1.363v-3.981C21.76,16.585,21.15,15.973,20.398,15.973z M19.197,19.84h-3.752v-1.023h3.752V19.84z"/>
	<path fill="#40C781" d="M22.548,4.129c-0.587-0.938-1.626-1.526-2.746-1.526c-1.067,0-2.063,0.535-2.661,1.398
		c-0.228-0.04-0.455-0.059-0.688-0.059c-2.217,0-4.017,1.802-4.017,4.019c0,2.295,2.011,3.899,4.888,3.899h0.002l4.97-0.042
		l0.052-0.002c1.984-0.169,3.543-1.861,3.543-3.855C25.891,6,24.451,4.386,22.548,4.129z M22.258,10.479l-4.938,0.042
		c-2.086-0.001-3.547-1.053-3.547-2.56c0-1.477,1.203-2.68,2.68-2.68c0.275,0,0.551,0.042,0.814,0.128l0.564,0.179l0.246-0.538
		c0.309-0.671,0.984-1.107,1.723-1.107c0.737,0,1.412,0.433,1.723,1.104l0.174,0.375l0.41,0.014
		c1.369,0.047,2.443,1.156,2.443,2.526C24.552,9.258,23.547,10.36,22.258,10.479z"/>
</g>
</svg>
