<?xml version="1.0" encoding="utf-8"?>
<!-- Generator: Adobe Illustrator 16.0.4, SVG Export Plug-In . SVG Version: 6.00 Build 0)  -->
<!DOCTYPE svg PUBLIC "-//W3C//DTD SVG 1.1//EN" "http://www.w3.org/Graphics/SVG/1.1/DTD/svg11.dtd">
<svg version="1.1" id="Layer_1" xmlns="http://www.w3.org/2000/svg" xmlns:xlink="http://www.w3.org/1999/xlink" x="0px" y="0px"
	 width="67px" height="67px" viewBox="0 0 67 67" enable-background="new 0 0 67 67" xml:space="preserve">
<path fill="#6BB1F7" d="M34,4C17.432,4,4,17.431,4,34c0,16.568,13.432,30,30,30c16.568,0,30-13.432,30-30C64,17.431,50.568,4,34,4z
	 M48.896,26.228c-0.127,0.212-0.775,0.953-1.467,1.631c-1.174,1.165-1.236,1.292-1.236,2.267c0,1.503-0.713,4.64-1.426,6.354
	c-1.32,3.221-4.148,6.547-6.978,8.221c-3.981,2.351-9.283,2.945-13.746,1.568C22.557,45.802,20,44.616,20,44.404
	c0-0.063,0.775-0.148,1.719-0.17c1.97-0.041,3.94-0.59,5.616-1.566l1.131-0.678l-1.299-0.444c-1.844-0.636-3.499-2.098-3.918-3.476
	c-0.126-0.445-0.084-0.467,1.089-0.467l1.215-0.021l-1.027-0.487c-1.216-0.615-2.326-1.652-2.871-2.712
	c-0.398-0.763-0.9-2.69-0.754-2.839c0.042-0.063,0.482,0.064,0.985,0.233c1.445,0.531,1.634,0.404,0.796-0.487
	c-1.571-1.61-2.053-4.004-1.299-6.271l0.356-1.017l1.383,1.377c2.829,2.776,6.161,4.428,9.974,4.915l1.049,0.127l-0.063-1.038
	c-0.188-2.69,1.467-5.148,4.086-6.101c0.964-0.339,2.599-0.381,3.668-0.085c0.42,0.127,1.215,0.551,1.781,0.932l1.026,0.7
	l1.131-0.361c0.629-0.19,1.468-0.508,1.845-0.72c0.356-0.191,0.671-0.296,0.671-0.233c0,0.36-0.775,1.589-1.426,2.267
	c-0.881,0.953-0.629,1.038,1.152,0.402C49.084,25.825,49.105,25.825,48.896,26.228z"/>
</svg>
