<?xml version="1.0" encoding="utf-8"?>
<!-- Generator: Adobe Illustrator 16.0.4, SVG Export Plug-In . SVG Version: 6.00 Build 0)  -->
<!DOCTYPE svg PUBLIC "-//W3C//DTD SVG 1.1//EN" "http://www.w3.org/Graphics/SVG/1.1/DTD/svg11.dtd">
<svg version="1.1" id="Layer_1" xmlns="http://www.w3.org/2000/svg" xmlns:xlink="http://www.w3.org/1999/xlink" x="0px" y="0px"
	 width="67px" height="67px" viewBox="0 0 67 67" enable-background="new 0 0 67 67" xml:space="preserve">
<g>
	<path fill="#4D95D0" d="M37.463,37.143c-0.42-0.168-1.004-0.256-1.738-0.275c-0.736-0.018-1.726-0.025-2.962-0.025H31.48v6.965
		h0.375c1.807,0,3.057-0.012,3.748-0.037s1.4-0.191,2.117-0.504c0.635-0.275,1.092-0.678,1.383-1.207
		c0.291-0.527,0.439-1.129,0.439-1.797c0-0.863-0.172-1.531-0.52-2.018C38.674,37.756,38.154,37.391,37.463,37.143z"/>
	<path fill="#4D95D0" d="M34,4C17.432,4,4,17.431,4,34c0,16.568,13.432,30,30,30c16.568,0,30-13.432,30-30C64,17.431,50.568,4,34,4z
		 M45.918,44.037c-0.521,1.047-1.219,1.908-2.102,2.598c-1.039,0.822-2.182,1.402-3.432,1.754c-1.242,0.348-2.822,0.523-4.744,0.523
		H24.567V21.088h9.774c2.031,0,3.57,0.077,4.617,0.236c1.047,0.152,2.029,0.478,2.943,0.976c0.988,0.537,1.73,1.256,2.221,2.149
		c0.488,0.899,0.734,1.932,0.734,3.106c0,1.358-0.336,2.564-1.014,3.624c-0.672,1.06-1.605,1.837-2.791,2.339v0.148
		c1.705,0.363,3.076,1.097,4.102,2.212c1.029,1.117,1.543,2.621,1.543,4.51C46.697,41.771,46.438,42.99,45.918,44.037z"/>
	<path fill="#4D95D0" d="M34.854,32.04c0.476-0.025,0.972-0.153,1.478-0.39c0.553-0.262,0.939-0.625,1.146-1.084
		c0.211-0.466,0.318-1.002,0.318-1.607c0-0.454-0.113-0.913-0.342-1.385c-0.229-0.471-0.584-0.816-1.074-1.027
		c-0.455-0.206-0.994-0.312-1.621-0.332c-0.629-0.019-1.56-0.024-2.797-0.024H31.48v5.888h0.876
		C33.541,32.078,34.379,32.066,34.854,32.04z"/>
</g>
</svg>
