<?xml version="1.0" encoding="utf-8"?>
<!-- Generator: Adobe Illustrator 16.0.4, SVG Export Plug-In . SVG Version: 6.00 Build 0)  -->
<!DOCTYPE svg PUBLIC "-//W3C//DTD SVG 1.1//EN" "http://www.w3.org/Graphics/SVG/1.1/DTD/svg11.dtd">
<svg version="1.1" id="Layer_1" xmlns="http://www.w3.org/2000/svg" xmlns:xlink="http://www.w3.org/1999/xlink" x="0px" y="0px"
	 width="67px" height="67px" viewBox="0 0 67 67" enable-background="new 0 0 67 67" xml:space="preserve">
<path fill="#C65C0E" d="M34,3C17.432,3,4,16.432,4,33s13.432,30,30,30s30-13.432,30-30S50.568,3,34,3z M49.286,48.027
	c-1.638,1.134-3.746,1.006-5.068-0.204c-0.716,0.485-1.596,0.857-2.616,1.106c0.047,0.166,0.073,0.337,0.077,0.511
	c0.015,0.58-0.081,1.336-0.655,1.616c-1.632,0.796-3.737,0.929-5.821,0.95c-2.112,0.022-4.25-0.069-5.93-0.843
	c-0.598-0.274-0.74-1.029-0.755-1.617c-0.021-0.899,0.567-1.729,1.549-2.371c-2.075-1.353-4.118-3.299-5.635-5.507
	c0.088,1.064-0.583,2.143-1.646,2.526c-0.837,0.304-1.692,0.092-2.234-0.469c-0.593-0.45-1.05-1.066-1.284-1.814
	c-0.637-2.036,0.621-4.256,2.803-4.939c0.05-0.015,0.097-0.026,0.147-0.038c-0.344-1.4-0.392-2.806-0.059-4.146
	c-0.848-0.151-1.649-0.464-2.352-0.979c-2.585-1.898-2.799-5.615-0.48-8.293c1.489-1.719,3.663-2.584,5.714-2.489
	c0.855-1.707,2.027-3.347,5.106-4.694c1.786-0.782,3.512-1.082,5.205-1.108c1.315-0.019,2.604,0.125,3.898,0.342
	c3.014,0.51,2.406,1.539,0.58,2.804c-1.401,0.97-3.053,1.867-4.783,2.627c3.225-0.069,5.744,1.11,7.978,2.792
	c1.806,1.362,1.181,1.925-0.627,2.205c-5.241,0.815-8.786,0.623-12.104,0.285c0,0.645-0.118,1.307-0.342,1.95
	c4.936,0.618,11.091,3.796,13.791,8.007c1.152,1.801,1.909,3.421,2.321,4.862c1.649-0.525,3.455-0.018,4.43,1.391
	C51.704,44.246,51.166,46.728,49.286,48.027z"/>
</svg>
